<?xml version="1.0" standalone="no"?>
<!DOCTYPE svg PUBLIC "-//W3C//DTD SVG 20010904//EN"
 "http://www.w3.org/TR/2001/REC-SVG-20010904/DTD/svg10.dtd">
<svg version="1.0" xmlns="http://www.w3.org/2000/svg"
 width="130.000000pt" height="130.000000pt" viewBox="0 0 130.000000 130.000000"
 preserveAspectRatio="xMidYMid meet">
<metadata>
Created by potrace 1.14, written by Peter Selinger 2001-2017
</metadata>
<g transform="translate(0.000000,130.000000) scale(0.100000,-0.100000)"
fill="#000000" stroke="none">
<path d="M580 1275 c-66 -19 -144 -56 -185 -90 l-30 -24 50 15 c114 35 234 -4
330 -108 119 -129 175 -326 139 -496 -7 -36 -12 -67 -10 -69 7 -7 107 148 136
209 47 102 63 180 57 283 -8 144 -20 179 -78 216 -82 52 -144 71 -254 75 -70
3 -117 -1 -155 -11z"/>
<path d="M207 1055 c-77 -16 -90 -24 -124 -79 -87 -137 -94 -346 -17 -500 21
-42 74 -116 74 -103 0 2 -7 23 -15 46 -8 23 -13 65 -11 94 9 146 124 274 311
346 98 37 249 45 337 18 27 -8 45 -11 42 -6 -8 14 -142 103 -194 129 -123 63
-270 83 -403 55z"/>
<path d="M1175 891 c38 -112 6 -222 -94 -322 -144 -143 -362 -198 -558 -140
-18 5 -33 8 -33 6 0 -8 183 -125 234 -149 121 -56 248 -69 377 -40 75 17 95
32 133 99 91 164 69 421 -48 560 l-26 30 15 -44z"/>
<path d="M425 796 c-135 -185 -181 -290 -190 -430 -6 -94 17 -221 46 -252 26
-28 114 -72 178 -89 59 -15 191 -17 253 -4 56 13 155 60 193 93 l30 27 -37
-15 c-60 -24 -162 -15 -228 18 -110 57 -215 204 -250 351 -15 66 -14 187 4
255 15 59 16 66 1 46z"/>
</g>
</svg>
